<svg xmlns="http://www.w3.org/2000/svg" xml:space="preserve" style="enable-background:new 0 0 854.34 189.9" viewBox="0 0 854.34 189.9">
  <path d="m65.29 132.47 50.13-28.94c6.63-3.83 6.63-13.39 0-17.21L66.37 58c-8.82-5.09-15.74 1.6-15.74 8.13v57.59c0 6.94 7.31 12.52 14.66 8.75zm8.5-86.76 64.34 37.15c4.05 2.34 9.05 2.34 13.1 0l.44-.26c6.63-3.82 6.63-13.39 0-17.21L66.36 16.14c-7.7-4.94-15.74.84-15.74 8.13v.96c0 1.78-1.92 2.89-3.46 2l-9.31-5.37c-.86-.49-1.31-1.48-1.12-2.45C39.91 3.13 58.74-5.5 73.78 3.85l85.07 49.12c16.13 9.31 16.18 32.57.17 41.98v.01L57.61 153.5c-4.33 2.5-7 7.12-7 12.12 0 7.29 8.04 13.08 15.74 8.13l85.31-49.25c6.63-3.82 6.63-13.39 0-17.21l-.83-.48c-1.54-.89-1.54-3.11 0-4l9.29-5.37c.86-.49 1.94-.39 2.68.26 12.08 10.59 10.76 30.73-3.96 39.23l-85.07 49.11c-16.41 10.21-37.36-1.01-37.51-20.21l-.01.01V47.74c0-4.41-2.35-8.48-6.16-10.68-7.7-4.94-15.74.84-15.74 8.13v99.46c0 7.29 8.04 13.08 15.74 8.13 1.54-.89 3.46.22 3.46 2v10.69c0 1-.63 1.88-1.58 2.2C16.68 172.74 0 161.87 0 144.65V45.19C0 26.34 19.99 15.1 36.26 24.03c12.52 7.23 25.02 14.45 37.53 21.68z" style="fill-rule:evenodd;clip-rule:evenodd;fill:#46237a"/>
  <path d="M63.82 113c0 2.69 2.96 4.82 5.8 3l31.45-18.15c2.44-1.41 2.44-4.94 0-6.35L69.62 73.35c-2.84-1.82-5.8.31-5.8 3V113z" style="fill:#18f040"/>
  <path d="m251.49 57.3-13.11 7.77c-2.45-4.25-4.79-7.03-7.01-8.32-2.31-1.48-5.29-2.22-8.95-2.22-4.49 0-8.21 1.27-11.17 3.81-2.96 2.5-4.44 5.64-4.44 9.43 0 5.23 3.88 9.43 11.65 12.62l10.68 4.37c8.69 3.51 15.05 7.8 19.07 12.87 4.02 5.06 6.03 11.27 6.03 18.62 0 9.85-3.28 17.99-9.85 24.41-6.61 6.47-14.82 9.71-24.62 9.71-9.29 0-16.97-2.75-23.03-8.25-5.96-5.5-9.69-13.25-11.17-23.23l16.37-3.61c.74 6.29 2.03 10.64 3.88 13.04 3.33 4.62 8.18 6.94 14.56 6.94 5.04 0 9.22-1.69 12.55-5.06 3.33-3.37 4.99-7.65 4.99-12.83 0-2.08-.29-3.99-.87-5.72s-1.48-3.33-2.7-4.79c-1.23-1.46-2.81-2.82-4.75-4.09s-4.25-2.48-6.94-3.64l-10.33-4.3c-14.66-6.2-21.99-15.26-21.99-27.19 0-8.05 3.07-14.77 9.22-20.18 6.15-5.46 13.8-8.18 22.96-8.18 12.4-.01 22.04 6 28.97 18.02zm19.28-26.01h15.61V86.5c5.55-4.99 11.67-7.49 18.38-7.49 7.63 0 13.73 2.47 18.31 7.42 3.88 4.3 5.83 11.17 5.83 20.6v41.41h-15.61v-39.95c0-5.41-.96-9.33-2.88-11.76s-5.01-3.64-9.26-3.64c-5.46 0-9.29 1.69-11.51 5.06-2.17 3.42-3.26 9.29-3.26 17.62v32.67h-15.61V31.29zm75.53 21.5c0-2.73.99-5.09 2.98-7.07 1.99-1.99 4.37-2.98 7.14-2.98 2.82 0 5.22.99 7.21 2.98 1.99 1.94 2.98 4.32 2.98 7.14s-.99 5.23-2.98 7.21c-1.94 1.99-4.32 2.98-7.14 2.98s-5.23-.99-7.21-2.98c-1.98-1.98-2.98-4.41-2.98-7.28zm17.96 28.09v67.55h-15.61V80.88h15.61zm35.38 104.32h-15.61V80.88h15.61v7.35c6.15-6.15 13.13-9.22 20.95-9.22 9.29 0 16.95 3.42 22.96 10.26 6.1 6.8 9.16 15.37 9.16 25.73 0 10.13-3.03 18.56-9.09 25.31-6.01 6.7-13.59 10.06-22.75 10.06-7.91 0-14.98-3.17-21.22-9.5v44.33h-.01zm37.1-70.12c0-6.47-1.76-11.74-5.27-15.81-3.56-4.11-8.05-6.17-13.46-6.17-5.73 0-10.38 1.99-13.94 5.96-3.56 3.98-5.34 9.2-5.34 15.67 0 6.34 1.78 11.56 5.34 15.67 3.51 4.02 8.14 6.03 13.87 6.03 5.41 0 9.87-2.03 13.39-6.1 3.61-4.06 5.41-9.15 5.41-15.25zm32.46-34.2h15.61v6.03c2.87-3.01 5.41-5.06 7.63-6.17 2.26-1.16 4.95-1.73 8.05-1.73 4.11 0 8.41 1.34 12.9 4.02l-7.14 14.29c-2.96-2.13-5.85-3.19-8.67-3.19-8.51 0-12.76 6.43-12.76 19.28v35.02h-15.61V80.88h-.01zm48.69 33.29c0-9.76 3.49-18.06 10.47-24.9s15.49-10.26 25.52-10.26c10.08 0 18.63 3.45 25.66 10.33 6.94 6.89 10.4 15.35 10.4 25.38 0 10.13-3.49 18.61-10.47 25.45-7.03 6.8-15.65 10.2-25.87 10.2-10.13 0-18.61-3.47-25.45-10.4-6.84-6.84-10.26-15.44-10.26-25.8zm15.95.28c0 6.75 1.8 12.09 5.41 16.02 3.7 3.98 8.58 5.96 14.63 5.96 6.1 0 10.98-1.96 14.63-5.9 3.65-3.93 5.48-9.18 5.48-15.74 0-6.57-1.83-11.81-5.48-15.74-3.7-3.98-8.58-5.96-14.63-5.96-5.96 0-10.8 1.99-14.5 5.96-3.69 3.98-5.54 9.11-5.54 15.4zM659.03 83.8v20.74c-3.56-4.35-6.75-7.33-9.57-8.95-2.77-1.66-6.03-2.5-9.78-2.5-5.87 0-10.75 2.06-14.63 6.17-3.88 4.12-5.83 9.27-5.83 15.47 0 6.34 1.87 11.54 5.62 15.61 3.79 4.07 8.62 6.1 14.5 6.1 3.75 0 7.05-.81 9.92-2.43 2.77-1.57 6.03-4.62 9.78-9.16v20.6c-6.34 3.28-12.67 4.92-19 4.92-10.45 0-19.19-3.37-26.22-10.13-7.03-6.8-10.54-15.23-10.54-25.32 0-10.08 3.56-18.59 10.68-25.52 7.12-6.94 15.86-10.4 26.22-10.4 6.64.01 12.93 1.61 18.85 4.8zm34.4-52.51v71.44l21.99-21.85h20.95l-29.34 28.37 31.49 39.19h-20.25l-22.33-28.51-2.5 2.5v26.01h-15.61V31.29h15.6zm114.37 87.05h-48.41c.42 5.55 2.22 9.96 5.41 13.25 3.19 3.24 7.28 4.85 12.28 4.85 3.88 0 7.1-.92 9.64-2.77 2.5-1.85 5.34-5.27 8.53-10.26l13.18 7.35c-2.04 3.47-4.19 6.44-6.45 8.91-2.27 2.47-4.69 4.51-7.28 6.1-2.59 1.6-5.39 2.76-8.39 3.5-3.01.74-6.27 1.11-9.78 1.11-10.08 0-18.17-3.24-24.27-9.71-6.1-6.52-9.16-15.17-9.16-25.94 0-10.68 2.96-19.33 8.88-25.94 5.96-6.52 13.87-9.78 23.72-9.78 9.94 0 17.8 3.17 23.58 9.5 5.73 6.29 8.6 15 8.6 26.15l-.08 3.68zm-16.02-12.77c-2.17-8.32-7.42-12.48-15.74-12.48-1.9 0-3.68.29-5.34.87-1.66.58-3.18 1.41-4.54 2.5s-2.53 2.39-3.5 3.92c-.97 1.53-1.71 3.26-2.22 5.2h31.34v-.01zm50.42-10.12v52.99h-15.61V95.45h-6.66V80.88h6.66V56.12h15.61v24.76h12.14v14.56l-12.14.01z" style="fill:#353535"/>
</svg>
